<?xml version="1.0" encoding="utf-8"?>
<!-- Generator: Adobe Illustrator 19.1.0, SVG Export Plug-In . SVG Version: 6.00 Build 0)  -->
<svg version="1.1" id="Layer_1" xmlns="http://www.w3.org/2000/svg" xmlns:xlink="http://www.w3.org/1999/xlink" x="0px" y="0px"
	 viewBox="0 0 120 120" style="enable-background:new 0 0 120 120;" xml:space="preserve">
<style type="text/css">
	.st0{fill:#414042;}
	.st1{fill:#769CD2;}
	.st2{fill:#26B8B0;}
	.st3{fill:#9C82BC;}
	.st4{fill:#676767;}
</style>
<circle class="st0" cx="60" cy="60" r="60"/>
<g>
	<path d="M80.7,100.1c-6.2,3.3-13.2,5.1-20.7,5.1C35.2,105.2,15.2,85,15.2,60S35.2,14.8,60,14.8S104.8,35,104.8,60
		c0,2.9-0.3,5.8-0.8,8.5c-2.4,10.2-9,8.6-9,8.6s-9-4.3-15.7,0.9C75,81.3,78,92.5,80.7,100.1z M69.1,88.4c0-3.2-2.6-5.8-5.8-5.8
		s-5.8,2.6-5.8,5.8c0,3.2,2.6,5.8,5.8,5.8S69.1,91.6,69.1,88.4z"/>
	<circle class="st1" cx="39.1" cy="74" r="10.7"/>
	<circle class="st2" cx="35.6" cy="46.8" r="10.7"/>
	<circle class="st3" cx="60" cy="32.2" r="10.7"/>
	<circle class="st4" cx="84.5" cy="45.8" r="10.7"/>
</g>
</svg>
